<?xml version="1.0" encoding="utf-8"?>
<!-- Generator: Adobe Illustrator 23.1.0, SVG Export Plug-In . SVG Version: 6.00 Build 0)  -->
<svg version="1.1" id="Camada_1" xmlns="http://www.w3.org/2000/svg" xmlns:xlink="http://www.w3.org/1999/xlink" x="0px" y="0px"
	 viewBox="0 0 40 40" style="enable-background:new 0 0 40 40;" xml:space="preserve">
<style type="text/css">
	.st0{fill:#40A8F4;}
</style>
<path class="st0" d="M35.7,0H4.3C1.9,0,0,2,0,4.3v31.4C0,38.1,1.9,40,4.3,40h12.2V26.4h-5.6V20h5.6v-4.8c0-5.5,3.3-8.7,8.3-8.7
	c2.5,0,5,0.4,5,0.4v5.4H27c-2.8,0-3.7,1.7-3.7,3.5V20h6.2l-1,6.4h-5.2V40h12.3c2.3,0,4.3-1.9,4.3-4.3V4.3C40,2,38,0,35.7,0z"/>
</svg>
