<?xml version="1.0" encoding="utf-8"?>
<!-- Generator: Adobe Illustrator 23.1.0, SVG Export Plug-In . SVG Version: 6.00 Build 0)  -->
<svg version="1.1" id="Camada_1" xmlns="http://www.w3.org/2000/svg" xmlns:xlink="http://www.w3.org/1999/xlink" x="0px" y="0px"
	 viewBox="0 0 41 40" style="enable-background:new 0 0 41 40;" xml:space="preserve">
<style type="text/css">
	.st0{fill:#FFFFFF;stroke:#61ED5D;stroke-miterlimit:10;}
</style>
<path class="st0" d="M34.4,5.9C30.8,2.1,25.8,0,20.4,0C9.5,0,0.6,8.9,0.6,19.8c0,3.6,1,7,2.7,9.9L0.5,40l10.4-2.7
	c2.9,1.5,6.2,2.4,9.5,2.4c11,0,20.1-8.9,20.1-19.8C40.5,14.6,38.2,9.6,34.4,5.9z M20.4,36.3c-2.9,0-5.8-0.8-8.4-2.3l-0.5-0.4
	l-6.2,1.7L7,29.2l-0.4-0.6C4.9,26,4,22.9,4,19.8c0-9,7.4-16.4,16.5-16.4c4.4,0,8.5,1.7,11.6,4.8s5,7.2,5,11.7
	C37.1,28.9,29.5,36.3,20.4,36.3z M29.5,24c-0.5-0.3-2.9-1.4-3.4-1.6c-0.4-0.2-0.8-0.3-1.2,0.3c-0.3,0.4-1.2,1.6-1.5,2
	c-0.4,0.3-0.6,0.4-1.1,0.1c-2.9-1.4-4.8-2.6-6.8-5.9C15,18,16,18.1,16.9,16.2c0.2-0.4,0.1-0.6,0-0.9c-0.1-0.3-1.2-2.7-1.5-3.7
	c-0.4-1-0.8-0.9-1.2-0.9c-0.3,0-0.6,0-0.9,0c-0.4,0-0.9,0.1-1.3,0.6c-0.4,0.5-1.7,1.7-1.7,4.1c0,2.5,1.7,4.8,2,5.2
	c0.3,0.3,3.5,5.3,8.5,7.4c3.1,1.4,4.4,1.5,6,1.2c0.9-0.1,2.9-1.2,3.3-2.3c0.4-1.2,0.4-2.1,0.3-2.3C30.3,24.4,30,24.3,29.5,24z"/>
</svg>
